
<svg xmlns="http://www.w3.org/2000/svg" version="1.1" xmlns:xlink="http://www.w3.org/1999/xlink" preserveAspectRatio="none" x="0px" y="0px" width="1200px" height="400px" viewBox="0 0 1200 400">
<defs>
<g id="Layer0_0_FILL">
<path fill="#E5B700" stroke="none" d="
M 30 60
L 30 62 62 62 62 60 30 60 Z"/>

<path fill="#FFCC00" stroke="none" d="
M 62 40.9
Q 61.95 39 60 39
L 31.95 39
Q 30.05 39 30 40.9
L 30 60 62 60 62 40.9
M 56 33.95
Q 55.95 32 53.95 32
L 38.05 32
Q 36.05 32 36 33.95
L 36 37 56 37 56 33.95 Z"/>

<path fill="#FFE272" stroke="none" d="
M 62 40.9
L 62 39
Q 62 37 60 37
L 56 37 36 37 31.95 37
Q 30 37 30 39
L 30 40.9
Q 30.05 39 31.95 39
L 60 39
Q 61.95 39 62 40.9
M 56 33.95
L 56 32.05
Q 56 30 53.95 30
L 38.05 30
Q 36 30 36 32.05
L 36 33.95
Q 36.05 32 38.05 32
L 53.95 32
Q 55.95 32 56 33.95 Z"/>
</g>

<g id="Layer0_1_FILL">
<path fill="#E5B700" stroke="none" d="
M 82 60
L 82 62 146 62 146 60 82 60 Z"/>

<path fill="#FFCC00" stroke="none" d="
M 90.05 32
Q 88.05 32 88 33.95
L 88 37 108 37 108 33.95
Q 107.95 32 105.95 32
L 90.05 32
M 146 40.9
Q 145.95 39 144 39
L 83.95 39
Q 82.05 39 82 40.9
L 82 60 146 60 146 40.9
M 137.95 32
L 122.05 32
Q 120.05 32 120 33.95
L 120 37 140 37 140 33.95
Q 139.95 32 137.95 32 Z"/>

<path fill="#FFE272" stroke="none" d="
M 88 33.95
Q 88.05 32 90.05 32
L 105.95 32
Q 107.95 32 108 33.95
L 108 32.05
Q 108 30 105.95 30
L 90.05 30
Q 88 30 88 32.05
L 88 33.95
M 144 39
Q 145.95 39 146 40.9
L 146 39
Q 146 37 144 37
L 140 37 120 37 108 37 88 37 83.95 37
Q 82 37 82 39
L 82 40.9
Q 82.05 39 83.95 39
L 144 39
M 122.05 32
L 137.95 32
Q 139.95 32 140 33.95
L 140 32.05
Q 140 30 137.95 30
L 122.05 30
Q 120 30 120 32.05
L 120 33.95
Q 120.05 32 122.05 32 Z"/>
</g>

<g id="Layer0_2_FILL">
<path fill="#FFCC00" stroke="none" d="
M 172 33.95
L 172 37 192 37 192 33.95
Q 191.95 32 189.95 32
L 174.05 32
Q 172.05 32 172 33.95
M 221.95 32
L 206.05 32
Q 204.05 32 204 33.95
L 204 37 224 37 224 33.95
Q 223.95 32 221.95 32
M 256 37
L 256 33.95
Q 255.95 32 253.95 32
L 238.05 32
Q 236.05 32 236 33.95
L 236 37 256 37
M 294 40.9
Q 293.95 39 292 39
L 167.95 39
Q 166.05 39 166 40.9
L 166 60 294 60 294 40.9
M 288 33.95
Q 287.95 32 285.95 32
L 270.05 32
Q 268.05 32 268 33.95
L 268 37 288 37 288 33.95 Z"/>

<path fill="#FFE272" stroke="none" d="
M 172 32.05
L 172 33.95
Q 172.05 32 174.05 32
L 189.95 32
Q 191.95 32 192 33.95
L 192 32.05
Q 192 30 189.95 30
L 174.05 30
Q 172 30 172 32.05
M 206.05 32
L 221.95 32
Q 223.95 32 224 33.95
L 224 32.05
Q 224 30 221.95 30
L 206.05 30
Q 204 30 204 32.05
L 204 33.95
Q 204.05 32 206.05 32
M 253.95 32
Q 255.95 32 256 33.95
L 256 32.05
Q 256 30 253.95 30
L 238.05 30
Q 236 30 236 32.05
L 236 33.95
Q 236.05 32 238.05 32
L 253.95 32
M 292 39
Q 293.95 39 294 40.9
L 294 39
Q 294 37 292 37
L 288 37 268 37 256 37 236 37 224 37 204 37 192 37 172 37 167.95 37
Q 166 37 166 39
L 166 40.9
Q 166.05 39 167.95 39
L 292 39
M 288 33.95
L 288 32.05
Q 288 30 285.95 30
L 270.05 30
Q 268 30 268 32.05
L 268 33.95
Q 268.05 32 270.05 32
L 285.95 32
Q 287.95 32 288 33.95 Z"/>

<path fill="#E5B700" stroke="none" d="
M 294 62
L 294 60 166 60 166 62 294 62 Z"/>
</g>

<g id="Layer0_3_FILL">
<path fill="#FFCC00" stroke="none" d="
M 340 37
L 340 33.95
Q 339.95 32 337.95 32
L 322.05 32
Q 320.05 32 320 33.95
L 320 37 340 37
M 384 33.95
L 384 37 404 37 404 33.95
Q 403.95 32 401.95 32
L 386.05 32
Q 384.05 32 384 33.95
M 372 33.95
Q 371.95 32 369.95 32
L 354.05 32
Q 352.05 32 352 33.95
L 352 37 372 37 372 33.95
M 416 33.95
L 416 37 436 37 436 33.95
Q 435.95 32 433.95 32
L 418.05 32
Q 416.05 32 416 33.95
M 450.05 32
Q 448.05 32 448 33.95
L 448 37 468 37 468 33.95
Q 467.95 32 465.95 32
L 450.05 32
M 506 40.9
Q 505.95 39 504 39
L 315.95 39
Q 314.05 39 314 40.9
L 314 60 506 60 506 40.9
M 500 37
L 500 33.95
Q 499.95 32 497.95 32
L 482.05 32
Q 480.05 32 480 33.95
L 480 37 500 37 Z"/>

<path fill="#FFE272" stroke="none" d="
M 340 32.05
Q 340 30 337.95 30
L 322.05 30
Q 320 30 320 32.05
L 320 33.95
Q 320.05 32 322.05 32
L 337.95 32
Q 339.95 32 340 33.95
L 340 32.05
M 384 32.05
L 384 33.95
Q 384.05 32 386.05 32
L 401.95 32
Q 403.95 32 404 33.95
L 404 32.05
Q 404 30 401.95 30
L 386.05 30
Q 384 30 384 32.05
M 369.95 32
Q 371.95 32 372 33.95
L 372 32.05
Q 372 30 369.95 30
L 354.05 30
Q 352 30 352 32.05
L 352 33.95
Q 352.05 32 354.05 32
L 369.95 32
M 416 32.05
L 416 33.95
Q 416.05 32 418.05 32
L 433.95 32
Q 435.95 32 436 33.95
L 436 32.05
Q 436 30 433.95 30
L 418.05 30
Q 416 30 416 32.05
M 448 33.95
Q 448.05 32 450.05 32
L 465.95 32
Q 467.95 32 468 33.95
L 468 32.05
Q 468 30 465.95 30
L 450.05 30
Q 448 30 448 32.05
L 448 33.95
M 504 37
L 500 37 480 37 468 37 448 37 436 37 416 37 404 37 384 37 372 37 352 37 340 37 320 37 315.95 37
Q 314 37 314 39
L 314 40.9
Q 314.05 39 315.95 39
L 504 39
Q 505.95 39 506 40.9
L 506 39
Q 506 37 504 37
M 500 32.05
Q 500 30 497.95 30
L 482.05 30
Q 480 30 480 32.05
L 480 33.95
Q 480.05 32 482.05 32
L 497.95 32
Q 499.95 32 500 33.95
L 500 32.05 Z"/>

<path fill="#E5B700" stroke="none" d="
M 506 62
L 506 60 314 60 314 62 506 62 Z"/>
</g>

<g id="Layer0_4_FILL">
<path fill="#FFE272" stroke="none" d="
M 384 92.05
L 384 93.95
Q 384.05 92 386.05 92
L 401.95 92
Q 403.95 92 404 93.95
L 404 92.05
Q 404 90 401.95 90
L 386.05 90
Q 384 90 384 92.05
M 352 92.05
L 352 93.95
Q 352.05 92 354.05 92
L 369.95 92
Q 371.95 92 372 93.95
L 372 92.05
Q 372 90 369.95 90
L 354.05 90
Q 352 90 352 92.05
M 340 92.05
Q 340 90 337.95 90
L 322.05 90
Q 320 90 320 92.05
L 320 93.95
Q 320.05 92 322.05 92
L 337.95 92
Q 339.95 92 340 93.95
L 340 92.05
M 448 93.95
Q 448.05 92 450.05 92
L 465.95 92
Q 467.95 92 468 93.95
L 468 92.05
Q 468 90 465.95 90
L 450.05 90
Q 448 90 448 92.05
L 448 93.95
M 416 93.95
Q 416.05 92 418.05 92
L 433.95 92
Q 435.95 92 436 93.95
L 436 92.05
Q 436 90 433.95 90
L 418.05 90
Q 416 90 416 92.05
L 416 93.95
M 504 97
L 500 97 480 97 468 97 448 97 436 97 416 97 404 97 384 97 372 97 352 97 340 97 320 97 315.95 97
Q 314 97 314 99
L 314 100.9
Q 314.05 99 315.95 99
L 504 99
Q 505.95 99 506 100.9
L 506 99
Q 506 97 504 97
M 497.95 92
Q 499.95 92 500 93.95
L 500 92.05
Q 500 90 497.95 90
L 482.05 90
Q 480 90 480 92.05
L 480 93.95
Q 480.05 92 482.05 92
L 497.95 92 Z"/>

<path fill="#FFCC00" stroke="none" d="
M 384 93.95
L 384 97 404 97 404 93.95
Q 403.95 92 401.95 92
L 386.05 92
Q 384.05 92 384 93.95
M 352 93.95
L 352 97 372 97 372 93.95
Q 371.95 92 369.95 92
L 354.05 92
Q 352.05 92 352 93.95
M 340 97
L 340 93.95
Q 339.95 92 337.95 92
L 322.05 92
Q 320.05 92 320 93.95
L 320 97 340 97
M 450.05 92
Q 448.05 92 448 93.95
L 448 97 468 97 468 93.95
Q 467.95 92 465.95 92
L 450.05 92
M 418.05 92
Q 416.05 92 416 93.95
L 416 97 436 97 436 93.95
Q 435.95 92 433.95 92
L 418.05 92
M 506 100.9
Q 505.95 99 504 99
L 315.95 99
Q 314.05 99 314 100.9
L 314 152 506 152 506 100.9
M 500 93.95
Q 499.95 92 497.95 92
L 482.05 92
Q 480.05 92 480 93.95
L 480 97 500 97 500 93.95 Z"/>

<path fill="#E5B700" stroke="none" d="
M 506 154
L 506 152 314 152 314 154 506 154 Z"/>
</g>

<g id="Layer0_5_FILL">
<path fill="#E5B700" stroke="none" d="
M 166 152
L 166 154 294 154 294 152 166 152 Z"/>

<path fill="#FFCC00" stroke="none" d="
M 167.95 99
Q 166.05 99 166 100.9
L 166 152 294 152 294 100.9
Q 293.95 99 292 99
L 167.95 99
M 204 93.95
L 204 97 224 97 224 93.95
Q 223.95 92 221.95 92
L 206.05 92
Q 204.05 92 204 93.95
M 172 93.95
L 172 97 192 97 192 93.95
Q 191.95 92 189.95 92
L 174.05 92
Q 172.05 92 172 93.95
M 268 93.95
L 268 97 288 97 288 93.95
Q 287.95 92 285.95 92
L 270.05 92
Q 268.05 92 268 93.95
M 256 97
L 256 93.95
Q 255.95 92 253.95 92
L 238.05 92
Q 236.05 92 236 93.95
L 236 97 256 97 Z"/>

<path fill="#FFE272" stroke="none" d="
M 206.05 92
L 221.95 92
Q 223.95 92 224 93.95
L 224 92.05
Q 224 90 221.95 90
L 206.05 90
Q 204 90 204 92.05
L 204 93.95
Q 204.05 92 206.05 92
M 172 92.05
L 172 93.95
Q 172.05 92 174.05 92
L 189.95 92
Q 191.95 92 192 93.95
L 192 92.05
Q 192 90 189.95 90
L 174.05 90
Q 172 90 172 92.05
M 268 97
L 256 97 236 97 224 97 204 97 192 97 172 97 167.95 97
Q 166 97 166 99
L 166 100.9
Q 166.05 99 167.95 99
L 292 99
Q 293.95 99 294 100.9
L 294 99
Q 294 97 292 97
L 288 97 268 97
M 268 93.95
Q 268.05 92 270.05 92
L 285.95 92
Q 287.95 92 288 93.95
L 288 92.05
Q 288 90 285.95 90
L 270.05 90
Q 268 90 268 92.05
L 268 93.95
M 253.95 92
Q 255.95 92 256 93.95
L 256 92.05
Q 256 90 253.95 90
L 238.05 90
Q 236 90 236 92.05
L 236 93.95
Q 236.05 92 238.05 92
L 253.95 92 Z"/>
</g>

<g id="Layer0_6_FILL">
<path fill="#E5B700" stroke="none" d="
M 82 152
L 82 154 146 154 146 152 82 152 Z"/>

<path fill="#FFCC00" stroke="none" d="
M 146 100.9
Q 145.95 99 144 99
L 83.95 99
Q 82.05 99 82 100.9
L 82 152 146 152 146 100.9
M 120 93.95
L 120 97 140 97 140 93.95
Q 139.95 92 137.95 92
L 122.05 92
Q 120.05 92 120 93.95
M 90.05 92
Q 88.05 92 88 93.95
L 88 97 108 97 108 93.95
Q 107.95 92 105.95 92
L 90.05 92 Z"/>

<path fill="#FFE272" stroke="none" d="
M 120 92.05
L 120 93.95
Q 120.05 92 122.05 92
L 137.95 92
Q 139.95 92 140 93.95
L 140 92.05
Q 140 90 137.95 90
L 122.05 90
Q 120 90 120 92.05
M 90.05 90
Q 88 90 88 92.05
L 88 93.95
Q 88.05 92 90.05 92
L 105.95 92
Q 107.95 92 108 93.95
L 108 92.05
Q 108 90 105.95 90
L 90.05 90
M 88 97
L 83.95 97
Q 82 97 82 99
L 82 100.9
Q 82.05 99 83.95 99
L 144 99
Q 145.95 99 146 100.9
L 146 99
Q 146 97 144 97
L 140 97 120 97 108 97 88 97 Z"/>
</g>

<g id="Layer0_7_FILL">
<path fill="#E5B700" stroke="none" d="
M 30 152
L 30 154 62 154 62 152 30 152 Z"/>

<path fill="#FFCC00" stroke="none" d="
M 62 100.9
Q 61.95 99 60 99
L 31.95 99
Q 30.05 99 30 100.9
L 30 152 62 152 62 100.9
M 38.05 92
Q 36.05 92 36 93.95
L 36 97 56 97 56 93.95
Q 55.95 92 53.95 92
L 38.05 92 Z"/>

<path fill="#FFE272" stroke="none" d="
M 36 97
L 31.95 97
Q 30 97 30 99
L 30 100.9
Q 30.05 99 31.95 99
L 60 99
Q 61.95 99 62 100.9
L 62 99
Q 62 97 60 97
L 56 97 36 97
M 38.05 90
Q 36 90 36 92.05
L 36 93.95
Q 36.05 92 38.05 92
L 53.95 92
Q 55.95 92 56 93.95
L 56 92.05
Q 56 90 53.95 90
L 38.05 90 Z"/>
</g>

<g id="Layer0_8_FILL">
<path fill="#65B641" stroke="none" d="
M 562 62
L 562 60 530 60 530 62 562 62 Z"/>

<path fill="#8CDE67" stroke="none" d="
M 538.05 30
Q 536 30 536 32.05
L 536 33.95
Q 536.05 32 538.05 32
L 553.95 32
Q 555.95 32 556 33.95
L 556 32.05
Q 556 30 553.95 30
L 538.05 30
M 530 40.9
Q 530.05 39 531.95 39
L 560 39
Q 561.95 39 562 40.9
L 562 39
Q 562 37 560 37
L 556 37 536 37 531.95 37
Q 530 37 530 39
L 530 40.9 Z"/>

<path fill="#73CD4B" stroke="none" d="
M 531.95 39
Q 530.05 39 530 40.9
L 530 60 562 60 562 40.9
Q 561.95 39 560 39
L 531.95 39
M 536 33.95
L 536 37 556 37 556 33.95
Q 555.95 32 553.95 32
L 538.05 32
Q 536.05 32 536 33.95 Z"/>
</g>

<g id="Layer0_9_FILL">
<path fill="#65B641" stroke="none" d="
M 582 60
L 582 62 646 62 646 60 582 60 Z"/>

<path fill="#73CD4B" stroke="none" d="
M 646 40.9
Q 645.95 39 644 39
L 583.95 39
Q 582.05 39 582 40.9
L 582 60 646 60 646 40.9
M 608 37
L 608 33.95
Q 607.95 32 605.95 32
L 590.05 32
Q 588.05 32 588 33.95
L 588 37 608 37
M 622.05 32
Q 620.05 32 620 33.95
L 620 37 640 37 640 33.95
Q 639.95 32 637.95 32
L 622.05 32 Z"/>

<path fill="#8CDE67" stroke="none" d="
M 608 33.95
L 608 32.05
Q 608 30 605.95 30
L 590.05 30
Q 588 30 588 32.05
L 588 33.95
Q 588.05 32 590.05 32
L 605.95 32
Q 607.95 32 608 33.95
M 620 37
L 608 37 588 37 583.95 37
Q 582 37 582 39
L 582 40.9
Q 582.05 39 583.95 39
L 644 39
Q 645.95 39 646 40.9
L 646 39
Q 646 37 644 37
L 640 37 620 37
M 620 33.95
Q 620.05 32 622.05 32
L 637.95 32
Q 639.95 32 640 33.95
L 640 32.05
Q 640 30 637.95 30
L 622.05 30
Q 620 30 620 32.05
L 620 33.95 Z"/>
</g>

<g id="Layer0_10_FILL">
<path fill="#73CD4B" stroke="none" d="
M 692 33.95
Q 691.95 32 689.95 32
L 674.05 32
Q 672.05 32 672 33.95
L 672 37 692 37 692 33.95
M 706.05 32
Q 704.05 32 704 33.95
L 704 37 724 37 724 33.95
Q 723.95 32 721.95 32
L 706.05 32
M 736 33.95
L 736 37 756 37 756 33.95
Q 755.95 32 753.95 32
L 738.05 32
Q 736.05 32 736 33.95
M 794 40.9
Q 793.95 39 792 39
L 667.95 39
Q 666.05 39 666 40.9
L 666 60 794 60 794 40.9
M 788 37
L 788 33.95
Q 787.95 32 785.95 32
L 770.05 32
Q 768.05 32 768 33.95
L 768 37 788 37 Z"/>

<path fill="#8CDE67" stroke="none" d="
M 692 32.05
Q 692 30 689.95 30
L 674.05 30
Q 672 30 672 32.05
L 672 33.95
Q 672.05 32 674.05 32
L 689.95 32
Q 691.95 32 692 33.95
L 692 32.05
M 706.05 30
Q 704 30 704 32.05
L 704 33.95
Q 704.05 32 706.05 32
L 721.95 32
Q 723.95 32 724 33.95
L 724 32.05
Q 724 30 721.95 30
L 706.05 30
M 736 32.05
L 736 33.95
Q 736.05 32 738.05 32
L 753.95 32
Q 755.95 32 756 33.95
L 756 32.05
Q 756 30 753.95 30
L 738.05 30
Q 736 30 736 32.05
M 792 39
Q 793.95 39 794 40.9
L 794 39
Q 794 37 792 37
L 788 37 768 37 756 37 736 37 724 37 704 37 692 37 672 37 667.95 37
Q 666 37 666 39
L 666 40.9
Q 666.05 39 667.95 39
L 792 39
M 785.95 32
Q 787.95 32 788 33.95
L 788 32.05
Q 788 30 785.95 30
L 770.05 30
Q 768 30 768 32.05
L 768 33.95
Q 768.05 32 770.05 32
L 785.95 32 Z"/>

<path fill="#65B641" stroke="none" d="
M 794 62
L 794 60 666 60 666 62 794 62 Z"/>
</g>

<g id="Layer0_11_FILL">
<path fill="#8CDE67" stroke="none" d="
M 820 32.05
L 820 33.95
Q 820.05 32 822.05 32
L 837.95 32
Q 839.95 32 840 33.95
L 840 32.05
Q 840 30 837.95 30
L 822.05 30
Q 820 30 820 32.05
M 852 32.05
L 852 33.95
Q 852.05 32 854.05 32
L 869.95 32
Q 871.95 32 872 33.95
L 872 32.05
Q 872 30 869.95 30
L 854.05 30
Q 852 30 852 32.05
M 904 32.05
Q 904 30 901.95 30
L 886.05 30
Q 884 30 884 32.05
L 884 33.95
Q 884.05 32 886.05 32
L 901.95 32
Q 903.95 32 904 33.95
L 904 32.05
M 936 32.05
Q 936 30 933.95 30
L 918.05 30
Q 916 30 916 32.05
L 916 33.95
Q 916.05 32 918.05 32
L 933.95 32
Q 935.95 32 936 33.95
L 936 32.05
M 948 32.05
L 948 33.95
Q 948.05 32 950.05 32
L 965.95 32
Q 967.95 32 968 33.95
L 968 32.05
Q 968 30 965.95 30
L 950.05 30
Q 948 30 948 32.05
M 1004 37
L 1000 37 980 37 968 37 948 37 936 37 916 37 904 37 884 37 872 37 852 37 840 37 820 37 815.95 37
Q 814 37 814 39
L 814 40.9
Q 814.05 39 815.95 39
L 1004 39
Q 1005.95 39 1006 40.9
L 1006 39
Q 1006 37 1004 37
M 980 33.95
Q 980.05 32 982.05 32
L 997.95 32
Q 999.95 32 1000 33.95
L 1000 32.05
Q 1000 30 997.95 30
L 982.05 30
Q 980 30 980 32.05
L 980 33.95 Z"/>

<path fill="#73CD4B" stroke="none" d="
M 820 33.95
L 820 37 840 37 840 33.95
Q 839.95 32 837.95 32
L 822.05 32
Q 820.05 32 820 33.95
M 852 33.95
L 852 37 872 37 872 33.95
Q 871.95 32 869.95 32
L 854.05 32
Q 852.05 32 852 33.95
M 904 37
L 904 33.95
Q 903.95 32 901.95 32
L 886.05 32
Q 884.05 32 884 33.95
L 884 37 904 37
M 936 37
L 936 33.95
Q 935.95 32 933.95 32
L 918.05 32
Q 916.05 32 916 33.95
L 916 37 936 37
M 948 33.95
L 948 37 968 37 968 33.95
Q 967.95 32 965.95 32
L 950.05 32
Q 948.05 32 948 33.95
M 1006 40.9
Q 1005.95 39 1004 39
L 815.95 39
Q 814.05 39 814 40.9
L 814 60 1006 60 1006 40.9
M 982.05 32
Q 980.05 32 980 33.95
L 980 37 1000 37 1000 33.95
Q 999.95 32 997.95 32
L 982.05 32 Z"/>

<path fill="#65B641" stroke="none" d="
M 1006 62
L 1006 60 814 60 814 62 1006 62 Z"/>
</g>

<g id="Layer0_12_FILL">
<path fill="#73CD4B" stroke="none" d="
M 869.95 92
L 854.05 92
Q 852.05 92 852 93.95
L 852 97 872 97 872 93.95
Q 871.95 92 869.95 92
M 820 93.95
L 820 97 840 97 840 93.95
Q 839.95 92 837.95 92
L 822.05 92
Q 820.05 92 820 93.95
M 950.05 92
Q 948.05 92 948 93.95
L 948 97 968 97 968 93.95
Q 967.95 92 965.95 92
L 950.05 92
M 916 93.95
L 916 97 936 97 936 93.95
Q 935.95 92 933.95 92
L 918.05 92
Q 916.05 92 916 93.95
M 904 97
L 904 93.95
Q 903.95 92 901.95 92
L 886.05 92
Q 884.05 92 884 93.95
L 884 97 904 97
M 1006 100.9
Q 1005.95 99 1004 99
L 815.95 99
Q 814.05 99 814 100.9
L 814 152 1006 152 1006 100.9
M 980 93.95
L 980 97 1000 97 1000 93.95
Q 999.95 92 997.95 92
L 982.05 92
Q 980.05 92 980 93.95 Z"/>

<path fill="#8CDE67" stroke="none" d="
M 854.05 92
L 869.95 92
Q 871.95 92 872 93.95
L 872 92.05
Q 872 90 869.95 90
L 854.05 90
Q 852 90 852 92.05
L 852 93.95
Q 852.05 92 854.05 92
M 820 92.05
L 820 93.95
Q 820.05 92 822.05 92
L 837.95 92
Q 839.95 92 840 93.95
L 840 92.05
Q 840 90 837.95 90
L 822.05 90
Q 820 90 820 92.05
M 948 93.95
Q 948.05 92 950.05 92
L 965.95 92
Q 967.95 92 968 93.95
L 968 92.05
Q 968 90 965.95 90
L 950.05 90
Q 948 90 948 92.05
L 948 93.95
M 916 92.05
L 916 93.95
Q 916.05 92 918.05 92
L 933.95 92
Q 935.95 92 936 93.95
L 936 92.05
Q 936 90 933.95 90
L 918.05 90
Q 916 90 916 92.05
M 904 92.05
Q 904 90 901.95 90
L 886.05 90
Q 884 90 884 92.05
L 884 93.95
Q 884.05 92 886.05 92
L 901.95 92
Q 903.95 92 904 93.95
L 904 92.05
M 1004 97
L 1000 97 980 97 968 97 948 97 936 97 916 97 904 97 884 97 872 97 852 97 840 97 820 97 815.95 97
Q 814 97 814 99
L 814 100.9
Q 814.05 99 815.95 99
L 1004 99
Q 1005.95 99 1006 100.9
L 1006 99
Q 1006 97 1004 97
M 980 92.05
L 980 93.95
Q 980.05 92 982.05 92
L 997.95 92
Q 999.95 92 1000 93.95
L 1000 92.05
Q 1000 90 997.95 90
L 982.05 90
Q 980 90 980 92.05 Z"/>

<path fill="#65B641" stroke="none" d="
M 1006 154
L 1006 152 814 152 814 154 1006 154 Z"/>
</g>

<g id="Layer0_13_FILL">
<path fill="#65B641" stroke="none" d="
M 666 152
L 666 154 794 154 794 152 666 152 Z"/>

<path fill="#73CD4B" stroke="none" d="
M 667.95 99
Q 666.05 99 666 100.9
L 666 152 794 152 794 100.9
Q 793.95 99 792 99
L 667.95 99
M 706.05 92
Q 704.05 92 704 93.95
L 704 97 724 97 724 93.95
Q 723.95 92 721.95 92
L 706.05 92
M 674.05 92
Q 672.05 92 672 93.95
L 672 97 692 97 692 93.95
Q 691.95 92 689.95 92
L 674.05 92
M 768 93.95
L 768 97 788 97 788 93.95
Q 787.95 92 785.95 92
L 770.05 92
Q 768.05 92 768 93.95
M 738.05 92
Q 736.05 92 736 93.95
L 736 97 756 97 756 93.95
Q 755.95 92 753.95 92
L 738.05 92 Z"/>

<path fill="#8CDE67" stroke="none" d="
M 704 92.05
L 704 93.95
Q 704.05 92 706.05 92
L 721.95 92
Q 723.95 92 724 93.95
L 724 92.05
Q 724 90 721.95 90
L 706.05 90
Q 704 90 704 92.05
M 674.05 90
Q 672 90 672 92.05
L 672 93.95
Q 672.05 92 674.05 92
L 689.95 92
Q 691.95 92 692 93.95
L 692 92.05
Q 692 90 689.95 90
L 674.05 90
M 768 97
L 756 97 736 97 724 97 704 97 692 97 672 97 667.95 97
Q 666 97 666 99
L 666 100.9
Q 666.05 99 667.95 99
L 792 99
Q 793.95 99 794 100.9
L 794 99
Q 794 97 792 97
L 788 97 768 97
M 768 92.05
L 768 93.95
Q 768.05 92 770.05 92
L 785.95 92
Q 787.95 92 788 93.95
L 788 92.05
Q 788 90 785.95 90
L 770.05 90
Q 768 90 768 92.05
M 736 93.95
Q 736.05 92 738.05 92
L 753.95 92
Q 755.95 92 756 93.95
L 756 92.05
Q 756 90 753.95 90
L 738.05 90
Q 736 90 736 92.05
L 736 93.95 Z"/>
</g>

<g id="Layer0_14_FILL">
<path fill="#65B641" stroke="none" d="
M 582 152
L 582 154 646 154 646 152 582 152 Z"/>

<path fill="#73CD4B" stroke="none" d="
M 646 100.9
Q 645.95 99 644 99
L 583.95 99
Q 582.05 99 582 100.9
L 582 152 646 152 646 100.9
M 620 93.95
L 620 97 640 97 640 93.95
Q 639.95 92 637.95 92
L 622.05 92
Q 620.05 92 620 93.95
M 590.05 92
Q 588.05 92 588 93.95
L 588 97 608 97 608 93.95
Q 607.95 92 605.95 92
L 590.05 92 Z"/>

<path fill="#8CDE67" stroke="none" d="
M 620 92.05
L 620 93.95
Q 620.05 92 622.05 92
L 637.95 92
Q 639.95 92 640 93.95
L 640 92.05
Q 640 90 637.95 90
L 622.05 90
Q 620 90 620 92.05
M 588 97
L 583.95 97
Q 582 97 582 99
L 582 100.9
Q 582.05 99 583.95 99
L 644 99
Q 645.95 99 646 100.9
L 646 99
Q 646 97 644 97
L 640 97 620 97 608 97 588 97
M 605.95 90
L 590.05 90
Q 588 90 588 92.05
L 588 93.95
Q 588.05 92 590.05 92
L 605.95 92
Q 607.95 92 608 93.95
L 608 92.05
Q 608 90 605.95 90 Z"/>
</g>

<g id="Layer0_15_FILL">
<path fill="#65B641" stroke="none" d="
M 562 154
L 562 152 530 152 530 154 562 154 Z"/>

<path fill="#73CD4B" stroke="none" d="
M 531.95 99
Q 530.05 99 530 100.9
L 530 152 562 152 562 100.9
Q 561.95 99 560 99
L 531.95 99
M 536 93.95
L 536 97 556 97 556 93.95
Q 555.95 92 553.95 92
L 538.05 92
Q 536.05 92 536 93.95 Z"/>

<path fill="#8CDE67" stroke="none" d="
M 536 92.05
L 536 93.95
Q 536.05 92 538.05 92
L 553.95 92
Q 555.95 92 556 93.95
L 556 92.05
Q 556 90 553.95 90
L 538.05 90
Q 536 90 536 92.05
M 536 97
L 531.95 97
Q 530 97 530 99
L 530 100.9
Q 530.05 99 531.95 99
L 560 99
Q 561.95 99 562 100.9
L 562 99
Q 562 97 560 97
L 556 97 536 97 Z"/>
</g>

<g id="Layer0_16_FILL">
<path fill="#D26219" stroke="none" d="
M 62 212
L 62 210 30 210 30 212 62 212 Z"/>

<path fill="#E86A17" stroke="none" d="
M 31.95 189
Q 30.05 189 30 190.9
L 30 210 62 210 62 190.9
Q 61.95 189 60 189
L 31.95 189
M 38.05 182
Q 36.05 182 36 183.95
L 36 187 56 187 56 183.95
Q 55.95 182 53.95 182
L 38.05 182 Z"/>

<path fill="#FA883E" stroke="none" d="
M 36 187
L 31.95 187
Q 30 187 30 189
L 30 190.9
Q 30.05 189 31.95 189
L 60 189
Q 61.95 189 62 190.9
L 62 189
Q 62 187 60 187
L 56 187 36 187
M 38.05 180
Q 36 180 36 182.05
L 36 183.95
Q 36.05 182 38.05 182
L 53.95 182
Q 55.95 182 56 183.95
L 56 182.05
Q 56 180 53.95 180
L 38.05 180 Z"/>
</g>

<g id="Layer0_17_FILL">
<path fill="#D26219" stroke="none" d="
M 146 212
L 146 210 82 210 82 212 146 212 Z"/>

<path fill="#FA883E" stroke="none" d="
M 120 182.05
L 120 183.95
Q 120.05 182 122.05 182
L 137.95 182
Q 139.95 182 140 183.95
L 140 182.05
Q 140 180 137.95 180
L 122.05 180
Q 120 180 120 182.05
M 88 183.95
Q 88.05 182 90.05 182
L 105.95 182
Q 107.95 182 108 183.95
L 108 182.05
Q 108 180 105.95 180
L 90.05 180
Q 88 180 88 182.05
L 88 183.95
M 88 187
L 83.95 187
Q 82 187 82 189
L 82 190.9
Q 82.05 189 83.95 189
L 144 189
Q 145.95 189 146 190.9
L 146 189
Q 146 187 144 187
L 140 187 120 187 108 187 88 187 Z"/>

<path fill="#E86A17" stroke="none" d="
M 120 183.95
L 120 187 140 187 140 183.95
Q 139.95 182 137.95 182
L 122.05 182
Q 120.05 182 120 183.95
M 83.95 189
Q 82.05 189 82 190.9
L 82 210 146 210 146 190.9
Q 145.95 189 144 189
L 83.95 189
M 88 183.95
L 88 187 108 187 108 183.95
Q 107.95 182 105.95 182
L 90.05 182
Q 88.05 182 88 183.95 Z"/>
</g>

<g id="Layer0_18_FILL">
<path fill="#D26219" stroke="none" d="
M 294 212
L 294 210 166 210 166 212 294 212 Z"/>

<path fill="#FA883E" stroke="none" d="
M 268 183.95
Q 268.05 182 270.05 182
L 285.95 182
Q 287.95 182 288 183.95
L 288 182.05
Q 288 180 285.95 180
L 270.05 180
Q 268 180 268 182.05
L 268 183.95
M 236 183.95
Q 236.05 182 238.05 182
L 253.95 182
Q 255.95 182 256 183.95
L 256 182.05
Q 256 180 253.95 180
L 238.05 180
Q 236 180 236 182.05
L 236 183.95
M 206.05 182
L 221.95 182
Q 223.95 182 224 183.95
L 224 182.05
Q 224 180 221.95 180
L 206.05 180
Q 204 180 204 182.05
L 204 183.95
Q 204.05 182 206.05 182
M 172 182.05
L 172 183.95
Q 172.05 182 174.05 182
L 189.95 182
Q 191.95 182 192 183.95
L 192 182.05
Q 192 180 189.95 180
L 174.05 180
Q 172 180 172 182.05
M 166 190.9
Q 166.05 189 167.95 189
L 292 189
Q 293.95 189 294 190.9
L 294 189
Q 294 187 292 187
L 288 187 268 187 256 187 236 187 224 187 204 187 192 187 172 187 167.95 187
Q 166 187 166 189
L 166 190.9 Z"/>

<path fill="#E86A17" stroke="none" d="
M 268 183.95
L 268 187 288 187 288 183.95
Q 287.95 182 285.95 182
L 270.05 182
Q 268.05 182 268 183.95
M 238.05 182
Q 236.05 182 236 183.95
L 236 187 256 187 256 183.95
Q 255.95 182 253.95 182
L 238.05 182
M 221.95 182
L 206.05 182
Q 204.05 182 204 183.95
L 204 187 224 187 224 183.95
Q 223.95 182 221.95 182
M 172 183.95
L 172 187 192 187 192 183.95
Q 191.95 182 189.95 182
L 174.05 182
Q 172.05 182 172 183.95
M 167.95 189
Q 166.05 189 166 190.9
L 166 210 294 210 294 190.9
Q 293.95 189 292 189
L 167.95 189 Z"/>
</g>

<g id="Layer0_19_FILL">
<path fill="#D26219" stroke="none" d="
M 506 212
L 506 210 314 210 314 212 506 212 Z"/>

<path fill="#E86A17" stroke="none" d="
M 450.05 182
Q 448.05 182 448 183.95
L 448 187 468 187 468 183.95
Q 467.95 182 465.95 182
L 450.05 182
M 416 183.95
L 416 187 436 187 436 183.95
Q 435.95 182 433.95 182
L 418.05 182
Q 416.05 182 416 183.95
M 384 183.95
L 384 187 404 187 404 183.95
Q 403.95 182 401.95 182
L 386.05 182
Q 384.05 182 384 183.95
M 352 183.95
L 352 187 372 187 372 183.95
Q 371.95 182 369.95 182
L 354.05 182
Q 352.05 182 352 183.95
M 340 187
L 340 183.95
Q 339.95 182 337.95 182
L 322.05 182
Q 320.05 182 320 183.95
L 320 187 340 187
M 506 190.9
Q 505.95 189 504 189
L 315.95 189
Q 314.05 189 314 190.9
L 314 210 506 210 506 190.9
M 500 187
L 500 183.95
Q 499.95 182 497.95 182
L 482.05 182
Q 480.05 182 480 183.95
L 480 187 500 187 Z"/>

<path fill="#FA883E" stroke="none" d="
M 448 183.95
Q 448.05 182 450.05 182
L 465.95 182
Q 467.95 182 468 183.95
L 468 182.05
Q 468 180 465.95 180
L 450.05 180
Q 448 180 448 182.05
L 448 183.95
M 416 182.05
L 416 183.95
Q 416.05 182 418.05 182
L 433.95 182
Q 435.95 182 436 183.95
L 436 182.05
Q 436 180 433.95 180
L 418.05 180
Q 416 180 416 182.05
M 384 182.05
L 384 183.95
Q 384.05 182 386.05 182
L 401.95 182
Q 403.95 182 404 183.95
L 404 182.05
Q 404 180 401.95 180
L 386.05 180
Q 384 180 384 182.05
M 352 182.05
L 352 183.95
Q 352.05 182 354.05 182
L 369.95 182
Q 371.95 182 372 183.95
L 372 182.05
Q 372 180 369.95 180
L 354.05 180
Q 352 180 352 182.05
M 340 182.05
Q 340 180 337.95 180
L 322.05 180
Q 320 180 320 182.05
L 320 183.95
Q 320.05 182 322.05 182
L 337.95 182
Q 339.95 182 340 183.95
L 340 182.05
M 504 187
L 500 187 480 187 468 187 448 187 436 187 416 187 404 187 384 187 372 187 352 187 340 187 320 187 315.95 187
Q 314 187 314 189
L 314 190.9
Q 314.05 189 315.95 189
L 504 189
Q 505.95 189 506 190.9
L 506 189
Q 506 187 504 187
M 500 182.05
Q 500 180 497.95 180
L 482.05 180
Q 480 180 480 182.05
L 480 183.95
Q 480.05 182 482.05 182
L 497.95 182
Q 499.95 182 500 183.95
L 500 182.05 Z"/>
</g>

<g id="Layer0_20_FILL">
<path fill="#D26219" stroke="none" d="
M 506 304
L 506 302 314 302 314 304 506 304 Z"/>

<path fill="#E86A17" stroke="none" d="
M 506 250.9
Q 505.95 249 504 249
L 315.95 249
Q 314.05 249 314 250.9
L 314 302 506 302 506 250.9
M 340 247
L 340 243.95
Q 339.95 242 337.95 242
L 322.05 242
Q 320.05 242 320 243.95
L 320 247 340 247
M 384 243.95
L 384 247 404 247 404 243.95
Q 403.95 242 401.95 242
L 386.05 242
Q 384.05 242 384 243.95
M 372 243.95
Q 371.95 242 369.95 242
L 354.05 242
Q 352.05 242 352 243.95
L 352 247 372 247 372 243.95
M 418.05 242
Q 416.05 242 416 243.95
L 416 247 436 247 436 243.95
Q 435.95 242 433.95 242
L 418.05 242
M 480 243.95
L 480 247 500 247 500 243.95
Q 499.95 242 497.95 242
L 482.05 242
Q 480.05 242 480 243.95
M 450.05 242
Q 448.05 242 448 243.95
L 448 247 468 247 468 243.95
Q 467.95 242 465.95 242
L 450.05 242 Z"/>

<path fill="#FA883E" stroke="none" d="
M 340 242.05
Q 340 240 337.95 240
L 322.05 240
Q 320 240 320 242.05
L 320 243.95
Q 320.05 242 322.05 242
L 337.95 242
Q 339.95 242 340 243.95
L 340 242.05
M 384 242.05
L 384 243.95
Q 384.05 242 386.05 242
L 401.95 242
Q 403.95 242 404 243.95
L 404 242.05
Q 404 240 401.95 240
L 386.05 240
Q 384 240 384 242.05
M 369.95 242
Q 371.95 242 372 243.95
L 372 242.05
Q 372 240 369.95 240
L 354.05 240
Q 352 240 352 242.05
L 352 243.95
Q 352.05 242 354.05 242
L 369.95 242
M 416 243.95
Q 416.05 242 418.05 242
L 433.95 242
Q 435.95 242 436 243.95
L 436 242.05
Q 436 240 433.95 240
L 418.05 240
Q 416 240 416 242.05
L 416 243.95
M 480 247
L 468 247 448 247 436 247 416 247 404 247 384 247 372 247 352 247 340 247 320 247 315.95 247
Q 314 247 314 249
L 314 250.9
Q 314.05 249 315.95 249
L 504 249
Q 505.95 249 506 250.9
L 506 249
Q 506 247 504 247
L 500 247 480 247
M 480 242.05
L 480 243.95
Q 480.05 242 482.05 242
L 497.95 242
Q 499.95 242 500 243.95
L 500 242.05
Q 500 240 497.95 240
L 482.05 240
Q 480 240 480 242.05
M 448 243.95
Q 448.05 242 450.05 242
L 465.95 242
Q 467.95 242 468 243.95
L 468 242.05
Q 468 240 465.95 240
L 450.05 240
Q 448 240 448 242.05
L 448 243.95 Z"/>
</g>

<g id="Layer0_21_FILL">
<path fill="#D26219" stroke="none" d="
M 166 302
L 166 304 294 304 294 302 166 302 Z"/>

<path fill="#FA883E" stroke="none" d="
M 174.05 240
Q 172 240 172 242.05
L 172 243.95
Q 172.05 242 174.05 242
L 189.95 242
Q 191.95 242 192 243.95
L 192 242.05
Q 192 240 189.95 240
L 174.05 240
M 206.05 242
L 221.95 242
Q 223.95 242 224 243.95
L 224 242.05
Q 224 240 221.95 240
L 206.05 240
Q 204 240 204 242.05
L 204 243.95
Q 204.05 242 206.05 242
M 256 243.95
L 256 242.05
Q 256 240 253.95 240
L 238.05 240
Q 236 240 236 242.05
L 236 243.95
Q 236.05 242 238.05 242
L 253.95 242
Q 255.95 242 256 243.95
M 292 247
L 288 247 268 247 256 247 236 247 224 247 204 247 192 247 172 247 167.95 247
Q 166 247 166 249
L 166 250.9
Q 166.05 249 167.95 249
L 292 249
Q 293.95 249 294 250.9
L 294 249
Q 294 247 292 247
M 285.95 242
Q 287.95 242 288 243.95
L 288 242.05
Q 288 240 285.95 240
L 270.05 240
Q 268 240 268 242.05
L 268 243.95
Q 268.05 242 270.05 242
L 285.95 242 Z"/>

<path fill="#E86A17" stroke="none" d="
M 172 243.95
L 172 247 192 247 192 243.95
Q 191.95 242 189.95 242
L 174.05 242
Q 172.05 242 172 243.95
M 204 243.95
L 204 247 224 247 224 243.95
Q 223.95 242 221.95 242
L 206.05 242
Q 204.05 242 204 243.95
M 294 250.9
Q 293.95 249 292 249
L 167.95 249
Q 166.05 249 166 250.9
L 166 302 294 302 294 250.9
M 256 243.95
Q 255.95 242 253.95 242
L 238.05 242
Q 236.05 242 236 243.95
L 236 247 256 247 256 243.95
M 288 247
L 288 243.95
Q 287.95 242 285.95 242
L 270.05 242
Q 268.05 242 268 243.95
L 268 247 288 247 Z"/>
</g>

<g id="Layer0_22_FILL">
<path fill="#D26219" stroke="none" d="
M 146 304
L 146 302 82 302 82 304 146 304 Z"/>

<path fill="#E86A17" stroke="none" d="
M 83.95 249
Q 82.05 249 82 250.9
L 82 302 146 302 146 250.9
Q 145.95 249 144 249
L 83.95 249
M 88 243.95
L 88 247 108 247 108 243.95
Q 107.95 242 105.95 242
L 90.05 242
Q 88.05 242 88 243.95
M 137.95 242
L 122.05 242
Q 120.05 242 120 243.95
L 120 247 140 247 140 243.95
Q 139.95 242 137.95 242 Z"/>

<path fill="#FA883E" stroke="none" d="
M 88 243.95
Q 88.05 242 90.05 242
L 105.95 242
Q 107.95 242 108 243.95
L 108 242.05
Q 108 240 105.95 240
L 90.05 240
Q 88 240 88 242.05
L 88 243.95
M 140 243.95
L 140 242.05
Q 140 240 137.95 240
L 122.05 240
Q 120 240 120 242.05
L 120 243.95
Q 120.05 242 122.05 242
L 137.95 242
Q 139.95 242 140 243.95
M 144 247
L 140 247 120 247 108 247 88 247 83.95 247
Q 82 247 82 249
L 82 250.9
Q 82.05 249 83.95 249
L 144 249
Q 145.95 249 146 250.9
L 146 249
Q 146 247 144 247 Z"/>
</g>

<g id="Layer0_23_FILL">
<path fill="#D26219" stroke="none" d="
M 62 304
L 62 302 30 302 30 304 62 304 Z"/>

<path fill="#E86A17" stroke="none" d="
M 31.95 249
Q 30.05 249 30 250.9
L 30 302 62 302 62 250.9
Q 61.95 249 60 249
L 31.95 249
M 56 243.95
Q 55.95 242 53.95 242
L 38.05 242
Q 36.05 242 36 243.95
L 36 247 56 247 56 243.95 Z"/>

<path fill="#FA883E" stroke="none" d="
M 60 247
L 56 247 36 247 31.95 247
Q 30 247 30 249
L 30 250.9
Q 30.05 249 31.95 249
L 60 249
Q 61.95 249 62 250.9
L 62 249
Q 62 247 60 247
M 56 243.95
L 56 242.05
Q 56 240 53.95 240
L 38.05 240
Q 36 240 36 242.05
L 36 243.95
Q 36.05 242 38.05 242
L 53.95 242
Q 55.95 242 56 243.95 Z"/>
</g>

<g id="Layer0_24_FILL">
<path fill="#1995C9" stroke="none" d="
M 562 212
L 562 210 530 210 530 212 562 212 Z"/>

<path fill="#1EA7E1" stroke="none" d="
M 531.95 189
Q 530.05 189 530 190.9
L 530 210 562 210 562 190.9
Q 561.95 189 560 189
L 531.95 189
M 536 183.95
L 536 187 556 187 556 183.95
Q 555.95 182 553.95 182
L 538.05 182
Q 536.05 182 536 183.95 Z"/>

<path fill="#30B7F0" stroke="none" d="
M 530 189
L 530 190.9
Q 530.05 189 531.95 189
L 560 189
Q 561.95 189 562 190.9
L 562 189
Q 562 187 560 187
L 556 187 536 187 531.95 187
Q 530 187 530 189
M 536 182.05
L 536 183.95
Q 536.05 182 538.05 182
L 553.95 182
Q 555.95 182 556 183.95
L 556 182.05
Q 556 180 553.95 180
L 538.05 180
Q 536 180 536 182.05 Z"/>
</g>

<g id="Layer0_25_FILL">
<path fill="#1995C9" stroke="none" d="
M 646 212
L 646 210 582 210 582 212 646 212 Z"/>

<path fill="#1EA7E1" stroke="none" d="
M 622.05 182
Q 620.05 182 620 183.95
L 620 187 640 187 640 183.95
Q 639.95 182 637.95 182
L 622.05 182
M 605.95 182
L 590.05 182
Q 588.05 182 588 183.95
L 588 187 608 187 608 183.95
Q 607.95 182 605.95 182
M 583.95 189
Q 582.05 189 582 190.9
L 582 210 646 210 646 190.9
Q 645.95 189 644 189
L 583.95 189 Z"/>

<path fill="#30B7F0" stroke="none" d="
M 620 183.95
Q 620.05 182 622.05 182
L 637.95 182
Q 639.95 182 640 183.95
L 640 182.05
Q 640 180 637.95 180
L 622.05 180
Q 620 180 620 182.05
L 620 183.95
M 590.05 182
L 605.95 182
Q 607.95 182 608 183.95
L 608 182.05
Q 608 180 605.95 180
L 590.05 180
Q 588 180 588 182.05
L 588 183.95
Q 588.05 182 590.05 182
M 582 189
L 582 190.9
Q 582.05 189 583.95 189
L 644 189
Q 645.95 189 646 190.9
L 646 189
Q 646 187 644 187
L 640 187 620 187 608 187 588 187 583.95 187
Q 582 187 582 189 Z"/>
</g>

<g id="Layer0_26_FILL">
<path fill="#1995C9" stroke="none" d="
M 794 212
L 794 210 666 210 666 212 794 212 Z"/>

<path fill="#1EA7E1" stroke="none" d="
M 768 183.95
L 768 187 788 187 788 183.95
Q 787.95 182 785.95 182
L 770.05 182
Q 768.05 182 768 183.95
M 736 183.95
L 736 187 756 187 756 183.95
Q 755.95 182 753.95 182
L 738.05 182
Q 736.05 182 736 183.95
M 706.05 182
Q 704.05 182 704 183.95
L 704 187 724 187 724 183.95
Q 723.95 182 721.95 182
L 706.05 182
M 667.95 189
Q 666.05 189 666 190.9
L 666 210 794 210 794 190.9
Q 793.95 189 792 189
L 667.95 189
M 674.05 182
Q 672.05 182 672 183.95
L 672 187 692 187 692 183.95
Q 691.95 182 689.95 182
L 674.05 182 Z"/>

<path fill="#30B7F0" stroke="none" d="
M 768 182.05
L 768 183.95
Q 768.05 182 770.05 182
L 785.95 182
Q 787.95 182 788 183.95
L 788 182.05
Q 788 180 785.95 180
L 770.05 180
Q 768 180 768 182.05
M 738.05 180
Q 736 180 736 182.05
L 736 183.95
Q 736.05 182 738.05 182
L 753.95 182
Q 755.95 182 756 183.95
L 756 182.05
Q 756 180 753.95 180
L 738.05 180
M 704 183.95
Q 704.05 182 706.05 182
L 721.95 182
Q 723.95 182 724 183.95
L 724 182.05
Q 724 180 721.95 180
L 706.05 180
Q 704 180 704 182.05
L 704 183.95
M 672 187
L 667.95 187
Q 666 187 666 189
L 666 190.9
Q 666.05 189 667.95 189
L 792 189
Q 793.95 189 794 190.9
L 794 189
Q 794 187 792 187
L 788 187 768 187 756 187 736 187 724 187 704 187 692 187 672 187
M 674.05 180
Q 672 180 672 182.05
L 672 183.95
Q 672.05 182 674.05 182
L 689.95 182
Q 691.95 182 692 183.95
L 692 182.05
Q 692 180 689.95 180
L 674.05 180 Z"/>
</g>

<g id="Layer0_27_FILL">
<path fill="#1EA7E1" stroke="none" d="
M 950.05 182
Q 948.05 182 948 183.95
L 948 187 968 187 968 183.95
Q 967.95 182 965.95 182
L 950.05 182
M 916 183.95
L 916 187 936 187 936 183.95
Q 935.95 182 933.95 182
L 918.05 182
Q 916.05 182 916 183.95
M 884 183.95
L 884 187 904 187 904 183.95
Q 903.95 182 901.95 182
L 886.05 182
Q 884.05 182 884 183.95
M 869.95 182
L 854.05 182
Q 852.05 182 852 183.95
L 852 187 872 187 872 183.95
Q 871.95 182 869.95 182
M 822.05 182
Q 820.05 182 820 183.95
L 820 187 840 187 840 183.95
Q 839.95 182 837.95 182
L 822.05 182
M 1006 190.9
Q 1005.95 189 1004 189
L 815.95 189
Q 814.05 189 814 190.9
L 814 210 1006 210 1006 190.9
M 982.05 182
Q 980.05 182 980 183.95
L 980 187 1000 187 1000 183.95
Q 999.95 182 997.95 182
L 982.05 182 Z"/>

<path fill="#30B7F0" stroke="none" d="
M 948 183.95
Q 948.05 182 950.05 182
L 965.95 182
Q 967.95 182 968 183.95
L 968 182.05
Q 968 180 965.95 180
L 950.05 180
Q 948 180 948 182.05
L 948 183.95
M 916 182.05
L 916 183.95
Q 916.05 182 918.05 182
L 933.95 182
Q 935.95 182 936 183.95
L 936 182.05
Q 936 180 933.95 180
L 918.05 180
Q 916 180 916 182.05
M 884 183.95
Q 884.05 182 886.05 182
L 901.95 182
Q 903.95 182 904 183.95
L 904 182.05
Q 904 180 901.95 180
L 886.05 180
Q 884 180 884 182.05
L 884 183.95
M 854.05 182
L 869.95 182
Q 871.95 182 872 183.95
L 872 182.05
Q 872 180 869.95 180
L 854.05 180
Q 852 180 852 182.05
L 852 183.95
Q 852.05 182 854.05 182
M 820 183.95
Q 820.05 182 822.05 182
L 837.95 182
Q 839.95 182 840 183.95
L 840 182.05
Q 840 180 837.95 180
L 822.05 180
Q 820 180 820 182.05
L 820 183.95
M 1004 189
Q 1005.95 189 1006 190.9
L 1006 189
Q 1006 187 1004 187
L 1000 187 980 187 968 187 948 187 936 187 916 187 904 187 884 187 872 187 852 187 840 187 820 187 815.95 187
Q 814 187 814 189
L 814 190.9
Q 814.05 189 815.95 189
L 1004 189
M 980 183.95
Q 980.05 182 982.05 182
L 997.95 182
Q 999.95 182 1000 183.95
L 1000 182.05
Q 1000 180 997.95 180
L 982.05 180
Q 980 180 980 182.05
L 980 183.95 Z"/>

<path fill="#1995C9" stroke="none" d="
M 1006 212
L 1006 210 814 210 814 212 1006 212 Z"/>
</g>

<g id="Layer0_28_FILL">
<path fill="#30B7F0" stroke="none" d="
M 820 242.05
L 820 243.95
Q 820.05 242 822.05 242
L 837.95 242
Q 839.95 242 840 243.95
L 840 242.05
Q 840 240 837.95 240
L 822.05 240
Q 820 240 820 242.05
M 854.05 242
L 869.95 242
Q 871.95 242 872 243.95
L 872 242.05
Q 872 240 869.95 240
L 854.05 240
Q 852 240 852 242.05
L 852 243.95
Q 852.05 242 854.05 242
M 904 242.05
Q 904 240 901.95 240
L 886.05 240
Q 884 240 884 242.05
L 884 243.95
Q 884.05 242 886.05 242
L 901.95 242
Q 903.95 242 904 243.95
L 904 242.05
M 948 243.95
Q 948.05 242 950.05 242
L 965.95 242
Q 967.95 242 968 243.95
L 968 242.05
Q 968 240 965.95 240
L 950.05 240
Q 948 240 948 242.05
L 948 243.95
M 933.95 242
Q 935.95 242 936 243.95
L 936 242.05
Q 936 240 933.95 240
L 918.05 240
Q 916 240 916 242.05
L 916 243.95
Q 916.05 242 918.05 242
L 933.95 242
M 1004 247
L 1000 247 980 247 968 247 948 247 936 247 916 247 904 247 884 247 872 247 852 247 840 247 820 247 815.95 247
Q 814 247 814 249
L 814 250.9
Q 814.05 249 815.95 249
L 1004 249
Q 1005.95 249 1006 250.9
L 1006 249
Q 1006 247 1004 247
M 980 242.05
L 980 243.95
Q 980.05 242 982.05 242
L 997.95 242
Q 999.95 242 1000 243.95
L 1000 242.05
Q 1000 240 997.95 240
L 982.05 240
Q 980 240 980 242.05 Z"/>

<path fill="#1EA7E1" stroke="none" d="
M 820 243.95
L 820 247 840 247 840 243.95
Q 839.95 242 837.95 242
L 822.05 242
Q 820.05 242 820 243.95
M 869.95 242
L 854.05 242
Q 852.05 242 852 243.95
L 852 247 872 247 872 243.95
Q 871.95 242 869.95 242
M 904 247
L 904 243.95
Q 903.95 242 901.95 242
L 886.05 242
Q 884.05 242 884 243.95
L 884 247 904 247
M 950.05 242
Q 948.05 242 948 243.95
L 948 247 968 247 968 243.95
Q 967.95 242 965.95 242
L 950.05 242
M 936 243.95
Q 935.95 242 933.95 242
L 918.05 242
Q 916.05 242 916 243.95
L 916 247 936 247 936 243.95
M 1006 250.9
Q 1005.95 249 1004 249
L 815.95 249
Q 814.05 249 814 250.9
L 814 302 1006 302 1006 250.9
M 980 243.95
L 980 247 1000 247 1000 243.95
Q 999.95 242 997.95 242
L 982.05 242
Q 980.05 242 980 243.95 Z"/>

<path fill="#1995C9" stroke="none" d="
M 1006 304
L 1006 302 814 302 814 304 1006 304 Z"/>
</g>

<g id="Layer0_29_FILL">
<path fill="#1995C9" stroke="none" d="
M 666 302
L 666 304 794 304 794 302 666 302 Z"/>

<path fill="#30B7F0" stroke="none" d="
M 704 243.95
Q 704.05 242 706.05 242
L 721.95 242
Q 723.95 242 724 243.95
L 724 242.05
Q 724 240 721.95 240
L 706.05 240
Q 704 240 704 242.05
L 704 243.95
M 689.95 242
Q 691.95 242 692 243.95
L 692 242.05
Q 692 240 689.95 240
L 674.05 240
Q 672 240 672 242.05
L 672 243.95
Q 672.05 242 674.05 242
L 689.95 242
M 738.05 240
Q 736 240 736 242.05
L 736 243.95
Q 736.05 242 738.05 242
L 753.95 242
Q 755.95 242 756 243.95
L 756 242.05
Q 756 240 753.95 240
L 738.05 240
M 792 247
L 788 247 768 247 756 247 736 247 724 247 704 247 692 247 672 247 667.95 247
Q 666 247 666 249
L 666 250.9
Q 666.05 249 667.95 249
L 792 249
Q 793.95 249 794 250.9
L 794 249
Q 794 247 792 247
M 785.95 242
Q 787.95 242 788 243.95
L 788 242.05
Q 788 240 785.95 240
L 770.05 240
Q 768 240 768 242.05
L 768 243.95
Q 768.05 242 770.05 242
L 785.95 242 Z"/>

<path fill="#1EA7E1" stroke="none" d="
M 704 243.95
L 704 247 724 247 724 243.95
Q 723.95 242 721.95 242
L 706.05 242
Q 704.05 242 704 243.95
M 692 247
L 692 243.95
Q 691.95 242 689.95 242
L 674.05 242
Q 672.05 242 672 243.95
L 672 247 692 247
M 794 250.9
Q 793.95 249 792 249
L 667.95 249
Q 666.05 249 666 250.9
L 666 302 794 302 794 250.9
M 736 243.95
L 736 247 756 247 756 243.95
Q 755.95 242 753.95 242
L 738.05 242
Q 736.05 242 736 243.95
M 788 243.95
Q 787.95 242 785.95 242
L 770.05 242
Q 768.05 242 768 243.95
L 768 247 788 247 788 243.95 Z"/>
</g>

<g id="Layer0_30_FILL">
<path fill="#1995C9" stroke="none" d="
M 646 304
L 646 302 582 302 582 304 646 304 Z"/>

<path fill="#1EA7E1" stroke="none" d="
M 583.95 249
Q 582.05 249 582 250.9
L 582 302 646 302 646 250.9
Q 645.95 249 644 249
L 583.95 249
M 620 243.95
L 620 247 640 247 640 243.95
Q 639.95 242 637.95 242
L 622.05 242
Q 620.05 242 620 243.95
M 608 247
L 608 243.95
Q 607.95 242 605.95 242
L 590.05 242
Q 588.05 242 588 243.95
L 588 247 608 247 Z"/>

<path fill="#30B7F0" stroke="none" d="
M 620 242.05
L 620 243.95
Q 620.05 242 622.05 242
L 637.95 242
Q 639.95 242 640 243.95
L 640 242.05
Q 640 240 637.95 240
L 622.05 240
Q 620 240 620 242.05
M 608 243.95
L 608 242.05
Q 608 240 605.95 240
L 590.05 240
Q 588 240 588 242.05
L 588 243.95
Q 588.05 242 590.05 242
L 605.95 242
Q 607.95 242 608 243.95
M 620 247
L 608 247 588 247 583.95 247
Q 582 247 582 249
L 582 250.9
Q 582.05 249 583.95 249
L 644 249
Q 645.95 249 646 250.9
L 646 249
Q 646 247 644 247
L 640 247 620 247 Z"/>
</g>

<g id="Layer0_31_FILL">
<path fill="#1995C9" stroke="none" d="
M 562 304
L 562 302 530 302 530 304 562 304 Z"/>

<path fill="#1EA7E1" stroke="none" d="
M 531.95 249
Q 530.05 249 530 250.9
L 530 302 562 302 562 250.9
Q 561.95 249 560 249
L 531.95 249
M 536 243.95
L 536 247 556 247 556 243.95
Q 555.95 242 553.95 242
L 538.05 242
Q 536.05 242 536 243.95 Z"/>

<path fill="#30B7F0" stroke="none" d="
M 536 242.05
L 536 243.95
Q 536.05 242 538.05 242
L 553.95 242
Q 555.95 242 556 243.95
L 556 242.05
Q 556 240 553.95 240
L 538.05 240
Q 536 240 536 242.05
M 536 247
L 531.95 247
Q 530 247 530 249
L 530 250.9
Q 530.05 249 531.95 249
L 560 249
Q 561.95 249 562 250.9
L 562 249
Q 562 247 560 247
L 556 247 536 247 Z"/>
</g>

<g id="Layer0_32_FILL">
<path fill="#62AD95" stroke="none" d="
M 30 392
L 30 394 94 394 94 392 30 392 Z"/>

<path fill="#6FC4A9" stroke="none" d="
M 31.95 339
Q 30.05 339 30 340.9
L 30 392 94 392 94 340.9
Q 93.95 339 92 339
L 31.95 339
M 70.05 332
Q 68.05 332 68 333.95
L 68 337 88 337 88 333.95
Q 87.95 332 85.95 332
L 70.05 332
M 56 333.95
Q 55.95 332 53.95 332
L 38.05 332
Q 36.05 332 36 333.95
L 36 337 56 337 56 333.95 Z"/>

<path fill="#84D7BC" stroke="none" d="
M 68 337
L 56 337 36 337 31.95 337
Q 30 337 30 339
L 30 340.9
Q 30.05 339 31.95 339
L 92 339
Q 93.95 339 94 340.9
L 94 339
Q 94 337 92 337
L 88 337 68 337
M 68 333.95
Q 68.05 332 70.05 332
L 85.95 332
Q 87.95 332 88 333.95
L 88 332.05
Q 88 330 85.95 330
L 70.05 330
Q 68 330 68 332.05
L 68 333.95
M 56 333.95
L 56 332.05
Q 56 330 53.95 330
L 38.05 330
Q 36 330 36 332.05
L 36 333.95
Q 36.05 332 38.05 332
L 53.95 332
Q 55.95 332 56 333.95 Z"/>
</g>

<g id="Layer0_32_MEMBER_0_FILL">
<path fill="#347E67" stroke="none" d="
M 55.5 358.45
Q 54.05 357 52.05 357 49.9 357 48.4 358.45 47.05 359.95 47 361.9 47 361.95 47 362 47 364.05 48.4 365.45 49.9 367 52.05 367 54.05 367 55.5 365.45 57 364.05 57 362 57 361.95 57 361.9 56.95 359.95 55.5 358.45
M 68.3 369.15
Q 67.9 368.9 67.45 369.15 67.05 369.3 66.95 369.75 66.5 370.7 65.55 371.55 63.85 372.85 61.5 372.85 59.05 372.85 57.4 371.55 56.45 370.75 56.15 369.8 56.05 369.35 55.65 369.2 55.25 368.95 54.75 369.05 54.35 369.2 54.15 369.6 53.95 370 54.05 370.45 54.5 372 56.1 373.2 58.3 375 61.5 375 64.65 375 66.9 373.2 68.3 372 68.95 370.55 69.1 370.1 68.95 369.65 68.7 369.25 68.3 369.15
M 75.5 358.45
Q 74.05 357 72.05 357 69.9 357 68.4 358.45 67.05 359.95 67 361.9 67 361.95 67 362 67 364.05 68.4 365.45 69.9 367 72.05 367 74.05 367 75.5 365.45 77 364.05 77 362 77 361.95 77 361.9 76.95 359.95 75.5 358.45 Z"/>
</g>

<g id="Layer0_33_FILL">
<path fill="#779CCB" stroke="none" d="
M 110 392
L 110 394 174 394 174 392 110 392 Z"/>

<path fill="#8DB5E7" stroke="none" d="
M 111.95 339
Q 110.05 339 110 340.9
L 110 392 174 392 174 340.9
Q 173.95 339 172 339
L 111.95 339
M 148 333.95
L 148 337 168 337 168 333.95
Q 167.95 332 165.95 332
L 150.05 332
Q 148.05 332 148 333.95
M 136 333.95
Q 135.95 332 133.95 332
L 118.05 332
Q 116.05 332 116 333.95
L 116 337 136 337 136 333.95 Z"/>

<path fill="#B2D3FC" stroke="none" d="
M 148 337
L 136 337 116 337 111.95 337
Q 110 337 110 339
L 110 340.9
Q 110.05 339 111.95 339
L 172 339
Q 173.95 339 174 340.9
L 174 339
Q 174 337 172 337
L 168 337 148 337
M 148 333.95
Q 148.05 332 150.05 332
L 165.95 332
Q 167.95 332 168 333.95
L 168 332.05
Q 168 330 165.95 330
L 150.05 330
Q 148 330 148 332.05
L 148 333.95
M 136 333.95
L 136 332.05
Q 136 330 133.95 330
L 118.05 330
Q 116 330 116 332.05
L 116 333.95
Q 116.05 332 118.05 332
L 133.95 332
Q 135.95 332 136 333.95 Z"/>
</g>

<g id="Layer0_33_MEMBER_0_FILL">
<path fill="#4F719D" stroke="none" d="
M 137 373.95
Q 137 374.4 137.25 374.65 137.6 375 138 375
L 144 375
Q 144.4 375 144.7 374.65 145 374.4 145 373.95 145 373.6 144.7 373.3 144.4 373 144 373
L 138 373
Q 137.6 373 137.25 373.3 137 373.6 137 373.95
M 136 364.5
Q 136 363.5 135.2 362.75 134.55 362 133.5 362 132.5 362 131.7 362.75 131 363.5 131 364.5 131 365.6 131.7 366.25 132.5 367 133.5 367 134.55 367 135.2 366.25 136 365.6 136 364.5
M 143.2 361.25
Q 144 360.6 144 359.5 144 358.5 143.2 357.75 142.55 357 141.5 357 140.5 357 139.7 357.75 139 358.5 139 359.5 139 360.6 139.7 361.25 140.5 362 141.5 362 142.55 362 143.2 361.25
M 147.7 362.75
Q 147 363.5 147 364.5 147 365.6 147.7 366.25 148.5 367 149.5 367 150.55 367 151.2 366.25 152 365.6 152 364.5 152 363.5 151.2 362.75 150.55 362 149.5 362 148.5 362 147.7 362.75 Z"/>
</g>

<g id="Layer0_34_FILL">
<path fill="#DE88A3" stroke="none" d="
M 190 392
L 190 394 254 394 254 392 190 392 Z"/>

<path fill="#F19CB7" stroke="none" d="
M 191.95 339
Q 190.05 339 190 340.9
L 190 392 254 392 254 340.9
Q 253.95 339 252 339
L 191.95 339
M 230.05 332
Q 228.05 332 228 333.95
L 228 337 248 337 248 333.95
Q 247.95 332 245.95 332
L 230.05 332
M 216 333.95
Q 215.95 332 213.95 332
L 198.05 332
Q 196.05 332 196 333.95
L 196 337 216 337 216 333.95 Z"/>

<path fill="#FFB1CA" stroke="none" d="
M 228 337
L 216 337 196 337 191.95 337
Q 190 337 190 339
L 190 340.9
Q 190.05 339 191.95 339
L 252 339
Q 253.95 339 254 340.9
L 254 339
Q 254 337 252 337
L 248 337 228 337
M 228 333.95
Q 228.05 332 230.05 332
L 245.95 332
Q 247.95 332 248 333.95
L 248 332.05
Q 248 330 245.95 330
L 230.05 330
Q 228 330 228 332.05
L 228 333.95
M 213.95 332
Q 215.95 332 216 333.95
L 216 332.05
Q 216 330 213.95 330
L 198.05 330
Q 196 330 196 332.05
L 196 333.95
Q 196.05 332 198.05 332
L 213.95 332 Z"/>
</g>

<g id="Layer0_34_MEMBER_0_FILL">
<path fill="#A55B72" stroke="none" d="
M 228.95 370.55
Q 229.1 370.1 228.95 369.65 228.7 369.25 228.3 369.15 227.9 368.9 227.45 369.15 227.05 369.3 226.95 369.75 226.5 370.7 225.55 371.55 223.85 372.85 221.5 372.85 219.05 372.85 217.4 371.55 216.45 370.75 216.15 369.8 216.05 369.35 215.65 369.2 215.25 368.95 214.75 369.05 214.35 369.2 214.15 369.6 213.95 370 214.05 370.45 214.5 372 216.1 373.2 218.3 375 221.5 375 224.65 375 226.9 373.2 228.3 372 228.95 370.55
M 224.95 362.95
Q 226.5 361.55 226.5 359.5 226.5 357.45 224.95 355.95 223.5 354.45 221.55 354.45 219.4 354.45 217.9 355.95 216.45 357.45 216.45 359.5 216.45 361.55 217.9 362.95 219.4 364.45 221.55 364.45 223.5 364.45 224.95 362.95 Z"/>

<path fill="#FFFFFF" stroke="none" d="
M 228.95 360.85
Q 229.05 360.2 229.05 359.6 229.05 356.55 226.75 354.2 224.55 352 221.6 352 218.4 352 216.15 354.2 214.05 356.55 214.05 359.6 214.05 360.2 214.2 360.85 214.45 363.05 216.15 364.75 218.4 367 221.6 367 224.55 367 226.75 364.75 228.5 363.05 228.95 360.85
M 226.5 359.5
Q 226.5 361.55 224.95 362.95 223.5 364.45 221.55 364.45 219.4 364.45 217.9 362.95 216.45 361.55 216.45 359.5 216.45 357.45 217.9 355.95 219.4 354.45 221.55 354.45 223.5 354.45 224.95 355.95 226.5 357.45 226.5 359.5 Z"/>
</g>

<g id="Layer0_35_FILL">
<path fill="#FFE479" stroke="none" d="
M 293.95 332
Q 295.95 332 296 333.95
L 296 332.05
Q 296 330 293.95 330
L 278.05 330
Q 276 330 276 332.05
L 276 333.95
Q 276.05 332 278.05 332
L 293.95 332
M 332 339
Q 333.95 339 334 340.9
L 334 339
Q 334 337 332 337
L 328 337 308 337 296 337 276 337 271.95 337
Q 270 337 270 339
L 270 340.9
Q 270.05 339 271.95 339
L 332 339
M 325.95 332
Q 327.95 332 328 333.95
L 328 332.05
Q 328 330 325.95 330
L 310.05 330
Q 308 330 308 332.05
L 308 333.95
Q 308.05 332 310.05 332
L 325.95 332 Z"/>

<path fill="#FFCC00" stroke="none" d="
M 296 337
L 296 333.95
Q 295.95 332 293.95 332
L 278.05 332
Q 276.05 332 276 333.95
L 276 337 296 337
M 334 340.9
Q 333.95 339 332 339
L 271.95 339
Q 270.05 339 270 340.9
L 270 392 334 392 334 340.9
M 328 337
L 328 333.95
Q 327.95 332 325.95 332
L 310.05 332
Q 308.05 332 308 333.95
L 308 337 328 337 Z"/>

<path fill="#D4AA00" stroke="none" d="
M 334 394
L 334 392 270 392 270 394 334 394 Z"/>
</g>

<g id="Layer0_35_MEMBER_0_FILL">
<path fill="#AD8A00" stroke="none" d="
M 288.4 365.45
Q 289.9 367 292.05 367 294.05 367 295.5 365.45 297 364.05 297 362
L 287 362
Q 287 364.05 288.4 365.45
M 308.3 369.15
Q 307.9 368.9 307.45 369.15 307.05 369.3 306.95 369.75 306.5 370.7 305.55 371.55 303.85 372.85 301.5 372.85 299.05 372.85 297.4 371.55 296.45 370.75 296.15 369.8 296.05 369.35 295.65 369.2 295.25 368.95 294.75 369.05 294.35 369.2 294.15 369.6 293.95 370 294.05 370.45 294.5 372 296.1 373.2 298.3 375 301.5 375 304.65 375 306.9 373.2 308.3 372 308.95 370.55 309.1 370.1 308.95 369.65 308.7 369.25 308.3 369.15
M 307 362
Q 307 364.05 308.4 365.45 309.9 367 312.05 367 314.05 367 315.5 365.45 317 364.05 317 362
L 307 362 Z"/>
</g>

<g id="Layer0_36_FILL">
<path fill="#C4B592" stroke="none" d="
M 350 392
L 350 394 414 394 414 392 350 392 Z"/>

<path fill="#E0D1AF" stroke="none" d="
M 351.95 339
Q 350.05 339 350 340.9
L 350 392 414 392 414 340.9
Q 413.95 339 412 339
L 351.95 339
M 390.05 332
Q 388.05 332 388 333.95
L 388 337 408 337 408 333.95
Q 407.95 332 405.95 332
L 390.05 332
M 376 337
L 376 333.95
Q 375.95 332 373.95 332
L 358.05 332
Q 356.05 332 356 333.95
L 356 337 376 337 Z"/>

<path fill="#EEE1C5" stroke="none" d="
M 388 337
L 376 337 356 337 351.95 337
Q 350 337 350 339
L 350 340.9
Q 350.05 339 351.95 339
L 412 339
Q 413.95 339 414 340.9
L 414 339
Q 414 337 412 337
L 408 337 388 337
M 390.05 330
Q 388 330 388 332.05
L 388 333.95
Q 388.05 332 390.05 332
L 405.95 332
Q 407.95 332 408 333.95
L 408 332.05
Q 408 330 405.95 330
L 390.05 330
M 373.95 332
Q 375.95 332 376 333.95
L 376 332.05
Q 376 330 373.95 330
L 358.05 330
Q 356 330 356 332.05
L 356 333.95
Q 356.05 332 358.05 332
L 373.95 332 Z"/>
</g>

<g id="Layer0_36_MEMBER_0_FILL">
<path fill="#AF9F7A" stroke="none" d="
M 397 362
Q 397 361.95 397 361.9 396.95 359.95 395.5 358.45 394.05 357 392.05 357
L 372.05 357
Q 371.95 357 371.9 357 369.85 357.05 368.4 358.45 367.05 359.95 367 361.9 367 361.95 367 362 367 364.05 368.4 365.45 369.85 366.95 371.95 367
L 392.2 367
Q 394.1 366.95 395.5 365.45 397 364.05 397 362
M 387.45 369.15
Q 387.05 369.3 386.95 369.75 386.5 370.7 385.55 371.55 383.85 372.85 381.5 372.85 379.05 372.85 377.4 371.55 376.45 370.75 376.15 369.8 376.05 369.35 375.65 369.2 375.25 368.95 374.75 369.05 374.35 369.2 374.15 369.6 373.95 370 374.05 370.45 374.5 372 376.1 373.2 378.3 375 381.5 375 384.65 375 386.9 373.2 388.3 372 388.95 370.55 389.1 370.1 388.95 369.65 388.7 369.25 388.3 369.15 387.9 368.9 387.45 369.15 Z"/>
</g>

<g id="Layer0_37_FILL">
<path fill="#A16B38" stroke="none" d="
M 430 392
L 430 394 494 394 494 392 430 392 Z"/>

<path fill="#AE7640" stroke="none" d="
M 431.95 339
Q 430.05 339 430 340.9
L 430 392 494 392 494 340.9
Q 493.95 339 492 339
L 431.95 339
M 438 384
L 438 347 486 347 486 384 438 384
M 468 333.95
L 468 337 488 337 488 333.95
Q 487.95 332 485.95 332
L 470.05 332
Q 468.05 332 468 333.95
M 456 333.95
Q 455.95 332 453.95 332
L 438.05 332
Q 436.05 332 436 333.95
L 436 337 456 337 456 333.95 Z"/>

<path fill="#A06D3D" stroke="none" d="
M 438 347
L 438 384 486 384 486 347 438 347 Z"/>

<path fill="#C28A55" stroke="none" d="
M 468 337
L 456 337 436 337 431.95 337
Q 430 337 430 339
L 430 340.9
Q 430.05 339 431.95 339
L 492 339
Q 493.95 339 494 340.9
L 494 339
Q 494 337 492 337
L 488 337 468 337
M 468 332.05
L 468 333.95
Q 468.05 332 470.05 332
L 485.95 332
Q 487.95 332 488 333.95
L 488 332.05
Q 488 330 485.95 330
L 470.05 330
Q 468 330 468 332.05
M 453.95 332
Q 455.95 332 456 333.95
L 456 332.05
Q 456 330 453.95 330
L 438.05 330
Q 436 330 436 332.05
L 436 333.95
Q 436.05 332 438.05 332
L 453.95 332 Z"/>
</g>

<g id="Layer0_38_FILL">
<path fill="#E5B700" stroke="none" d="
M 510 392
L 510 394 574 394 574 392 510 392 Z"/>

<path fill="#FFCC00" stroke="none" d="
M 511.95 339
Q 510.05 339 510 340.9
L 510 392 574 392 574 340.9
Q 573.95 339 572 339
L 511.95 339
M 563.85 344.85
Q 564.7 344.05 565.95 344 566 344 566.05 344 567.25 344 568.1 344.85 568.95 345.75 569 346.95
L 569 347
Q 569 348.25 568.1 349.05 567.25 350 566.05 350 566 350 565.95 350 564.7 349.95 563.85 349.05 563 348.25 563 347
L 563 346.95
Q 563.05 345.75 563.85 344.85
M 517.95 344
Q 518 344 518.05 344 519.25 344 520.1 344.85 520.95 345.75 521 346.95
L 521 347
Q 521 348.25 520.1 349.05 519.25 350 518.05 350 518 350 517.95 350 516.7 349.95 515.85 349.05 515 348.25 515 347
L 515 346.95
Q 515.05 345.75 515.85 344.85 516.7 344.05 517.95 344
M 518.05 381
Q 519.25 381 520.1 381.85 520.95 382.75 521 383.95
L 521 384
Q 521 385.25 520.1 386.05 519.25 387 518.05 387 518 387 517.95 387 516.7 386.95 515.85 386.05 515 385.25 515 384
L 515 383.95
Q 515.05 382.75 515.85 381.85 516.7 381.05 517.95 381 518 381 518.05 381
M 537.05 353.8
Q 537.2 352.5 538.15 351.45 539.5 350 541.5 350 543.5 350 544.85 351.45 545.8 352.5 546 353.8 546 354.3 546 354.75
L 545 368.6
Q 544.9 369.7 543.85 370.4 542.85 371.15 541.5 371.15 540.15 371.15 539.1 370.4 538.1 369.7 538.05 368.6
L 537 354.75
Q 537 354.25 537.05 353.8
M 544.75 375.85
Q 544.8 376.15 544.8 376.5 544.8 377.95 543.8 378.95 542.85 380 541.5 380 540.15 380 539.15 378.95 538.2 377.95 538.2 376.5 538.2 376.15 538.25 375.85 538.4 374.8 539.15 373.95 540.15 372.95 541.5 372.95 542.85 372.95 543.8 373.95 544.6 374.8 544.75 375.85
M 566.05 387
Q 566 387 565.95 387 564.7 386.95 563.85 386.05 563 385.25 563 384
L 563 383.95
Q 563.05 382.75 563.85 381.85 564.7 381.05 565.95 381 566 381 566.05 381 567.25 381 568.1 381.85 568.95 382.75 569 383.95
L 569 384
Q 569 385.25 568.1 386.05 567.25 387 566.05 387
M 565.95 332
L 550.05 332
Q 548.05 332 548 333.95
L 548 337 568 337 568 333.95
Q 567.95 332 565.95 332
M 536 333.95
Q 535.95 332 533.95 332
L 518.05 332
Q 516.05 332 516 333.95
L 516 337 536 337 536 333.95 Z"/>

<path fill="#DAAE03" stroke="none" d="
M 565.95 387
Q 566 387 566.05 387 567.25 387 568.1 386.05 569 385.25 569 384
L 569 383.95
Q 568.95 382.75 568.1 381.85 567.25 381 566.05 381 566 381 565.95 381 564.7 381.05 563.85 381.85 563.05 382.75 563 383.95
L 563 384
Q 563 385.25 563.85 386.05 564.7 386.95 565.95 387
M 520.1 381.85
Q 519.25 381 518.05 381 518 381 517.95 381 516.7 381.05 515.85 381.85 515.05 382.75 515 383.95
L 515 384
Q 515 385.25 515.85 386.05 516.7 386.95 517.95 387 518 387 518.05 387 519.25 387 520.1 386.05 521 385.25 521 384
L 521 383.95
Q 520.95 382.75 520.1 381.85
M 518.05 344
Q 518 344 517.95 344 516.7 344.05 515.85 344.85 515.05 345.75 515 346.95
L 515 347
Q 515 348.25 515.85 349.05 516.7 349.95 517.95 350 518 350 518.05 350 519.25 350 520.1 349.05 521 348.25 521 347
L 521 346.95
Q 520.95 345.75 520.1 344.85 519.25 344 518.05 344
M 565.95 344
Q 564.7 344.05 563.85 344.85 563.05 345.75 563 346.95
L 563 347
Q 563 348.25 563.85 349.05 564.7 349.95 565.95 350 566 350 566.05 350 567.25 350 568.1 349.05 569 348.25 569 347
L 569 346.95
Q 568.95 345.75 568.1 344.85 567.25 344 566.05 344 566 344 565.95 344 Z"/>

<path fill="#FFFFFF" stroke="none" d="
M 544.8 376.5
Q 544.8 376.15 544.75 375.85 544.6 374.8 543.8 373.95 542.85 372.95 541.5 372.95 540.15 372.95 539.15 373.95 538.4 374.8 538.25 375.85 538.2 376.15 538.2 376.5 538.2 377.95 539.15 378.95 540.15 380 541.5 380 542.85 380 543.8 378.95 544.8 377.95 544.8 376.5
M 538.15 351.45
Q 537.2 352.5 537.05 353.8 537 354.25 537 354.75
L 538.05 368.6
Q 538.1 369.7 539.1 370.4 540.15 371.15 541.5 371.15 542.85 371.15 543.85 370.4 544.9 369.7 545 368.6
L 546 354.75
Q 546 354.3 546 353.8 545.8 352.5 544.85 351.45 543.5 350 541.5 350 539.5 350 538.15 351.45 Z"/>

<path fill="#FFE272" stroke="none" d="
M 548 337
L 536 337 516 337 511.95 337
Q 510 337 510 339
L 510 340.9
Q 510.05 339 511.95 339
L 572 339
Q 573.95 339 574 340.9
L 574 339
Q 574 337 572 337
L 568 337 548 337
M 550.05 332
L 565.95 332
Q 567.95 332 568 333.95
L 568 332.05
Q 568 330 565.95 330
L 550.05 330
Q 548 330 548 332.05
L 548 333.95
Q 548.05 332 550.05 332
M 536 333.95
L 536 332.05
Q 536 330 533.95 330
L 518.05 330
Q 516 330 516 332.05
L 516 333.95
Q 516.05 332 518.05 332
L 533.95 332
Q 535.95 332 536 333.95 Z"/>
</g>
</defs>

<g transform="matrix( 1, 0, 0, 1, 0,0) ">
<use xlink:href="#Layer0_0_FILL"/>
</g>

<g transform="matrix( 1, 0, 0, 1, 0,0) ">
<use xlink:href="#Layer0_1_FILL"/>
</g>

<g transform="matrix( 1, 0, 0, 1, 0,0) ">
<use xlink:href="#Layer0_2_FILL"/>
</g>

<g transform="matrix( 1, 0, 0, 1, 0,0) ">
<use xlink:href="#Layer0_3_FILL"/>
</g>

<g transform="matrix( 1, 0, 0, 1, 0,0) ">
<use xlink:href="#Layer0_4_FILL"/>
</g>

<g transform="matrix( 1, 0, 0, 1, 0,0) ">
<use xlink:href="#Layer0_5_FILL"/>
</g>

<g transform="matrix( 1, 0, 0, 1, 0,0) ">
<use xlink:href="#Layer0_6_FILL"/>
</g>

<g transform="matrix( 1, 0, 0, 1, 0,0) ">
<use xlink:href="#Layer0_7_FILL"/>
</g>

<g transform="matrix( 1, 0, 0, 1, 0,0) ">
<use xlink:href="#Layer0_8_FILL"/>
</g>

<g transform="matrix( 1, 0, 0, 1, 0,0) ">
<use xlink:href="#Layer0_9_FILL"/>
</g>

<g transform="matrix( 1, 0, 0, 1, 0,0) ">
<use xlink:href="#Layer0_10_FILL"/>
</g>

<g transform="matrix( 1, 0, 0, 1, 0,0) ">
<use xlink:href="#Layer0_11_FILL"/>
</g>

<g transform="matrix( 1, 0, 0, 1, 0,0) ">
<use xlink:href="#Layer0_12_FILL"/>
</g>

<g transform="matrix( 1, 0, 0, 1, 0,0) ">
<use xlink:href="#Layer0_13_FILL"/>
</g>

<g transform="matrix( 1, 0, 0, 1, 0,0) ">
<use xlink:href="#Layer0_14_FILL"/>
</g>

<g transform="matrix( 1, 0, 0, 1, 0,0) ">
<use xlink:href="#Layer0_15_FILL"/>
</g>

<g transform="matrix( 1, 0, 0, 1, 0,0) ">
<use xlink:href="#Layer0_16_FILL"/>
</g>

<g transform="matrix( 1, 0, 0, 1, 0,0) ">
<use xlink:href="#Layer0_17_FILL"/>
</g>

<g transform="matrix( 1, 0, 0, 1, 0,0) ">
<use xlink:href="#Layer0_18_FILL"/>
</g>

<g transform="matrix( 1, 0, 0, 1, 0,0) ">
<use xlink:href="#Layer0_19_FILL"/>
</g>

<g transform="matrix( 1, 0, 0, 1, 0,0) ">
<use xlink:href="#Layer0_20_FILL"/>
</g>

<g transform="matrix( 1, 0, 0, 1, 0,0) ">
<use xlink:href="#Layer0_21_FILL"/>
</g>

<g transform="matrix( 1, 0, 0, 1, 0,0) ">
<use xlink:href="#Layer0_22_FILL"/>
</g>

<g transform="matrix( 1, 0, 0, 1, 0,0) ">
<use xlink:href="#Layer0_23_FILL"/>
</g>

<g transform="matrix( 1, 0, 0, 1, 0,0) ">
<use xlink:href="#Layer0_24_FILL"/>
</g>

<g transform="matrix( 1, 0, 0, 1, 0,0) ">
<use xlink:href="#Layer0_25_FILL"/>
</g>

<g transform="matrix( 1, 0, 0, 1, 0,0) ">
<use xlink:href="#Layer0_26_FILL"/>
</g>

<g transform="matrix( 1, 0, 0, 1, 0,0) ">
<use xlink:href="#Layer0_27_FILL"/>
</g>

<g transform="matrix( 1, 0, 0, 1, 0,0) ">
<use xlink:href="#Layer0_28_FILL"/>
</g>

<g transform="matrix( 1, 0, 0, 1, 0,0) ">
<use xlink:href="#Layer0_29_FILL"/>
</g>

<g transform="matrix( 1, 0, 0, 1, 0,0) ">
<use xlink:href="#Layer0_30_FILL"/>
</g>

<g transform="matrix( 1, 0, 0, 1, 0,0) ">
<use xlink:href="#Layer0_31_FILL"/>
</g>

<g transform="matrix( 1, 0, 0, 1, 0,0) ">
<use xlink:href="#Layer0_32_FILL"/>
</g>

<g transform="matrix( 1, 0, 0, 1, 0,0) ">
<use xlink:href="#Layer0_32_MEMBER_0_FILL"/>
</g>

<g transform="matrix( 1, 0, 0, 1, 0,0) ">
<use xlink:href="#Layer0_33_FILL"/>
</g>

<g transform="matrix( 1, 0, 0, 1, 0,0) ">
<use xlink:href="#Layer0_33_MEMBER_0_FILL"/>
</g>

<g transform="matrix( 1, 0, 0, 1, 0,0) ">
<use xlink:href="#Layer0_34_FILL"/>
</g>

<g transform="matrix( 1, 0, 0, 1, 0,0) ">
<use xlink:href="#Layer0_34_MEMBER_0_FILL"/>
</g>

<g transform="matrix( 1, 0, 0, 1, 0,0) ">
<use xlink:href="#Layer0_35_FILL"/>
</g>

<g transform="matrix( 1, 0, 0, 1, 0,0) ">
<use xlink:href="#Layer0_35_MEMBER_0_FILL"/>
</g>

<g transform="matrix( 1, 0, 0, 1, 0,0) ">
<use xlink:href="#Layer0_36_FILL"/>
</g>

<g transform="matrix( 1, 0, 0, 1, 0,0) ">
<use xlink:href="#Layer0_36_MEMBER_0_FILL"/>
</g>

<g transform="matrix( 1, 0, 0, 1, 0,0) ">
<use xlink:href="#Layer0_37_FILL"/>
</g>

<g transform="matrix( 1, 0, 0, 1, 0,0) ">
<use xlink:href="#Layer0_38_FILL"/>
</g>
</svg>
